<svg width="88" height="98" viewBox="0 0 88 98" fill="none" xmlns="http://www.w3.org/2000/svg">
<path d="M22.4167 38.2917H11.8333C9.02646 38.2917 6.33455 39.4067 4.34979 41.3915C2.36503 43.3762 1.25 46.0681 1.25 48.875V85.9167C1.25 88.7235 2.36503 91.4154 4.34979 93.4002C6.33455 95.385 9.02646 96.5 11.8333 96.5H75.3333C78.1402 96.5 80.8321 95.385 82.8169 93.4002C84.8016 91.4154 85.9167 88.7235 85.9167 85.9167V48.875C85.9167 46.0681 84.8016 43.3762 82.8169 41.3915C80.8321 39.4067 78.1402 38.2917 75.3333 38.2917H64.75M22.4167 38.2917V22.4167C22.4167 16.8029 24.6467 11.4191 28.6162 7.44957C32.5858 3.48005 37.9696 1.25 43.5833 1.25C49.1971 1.25 54.5809 3.48005 58.5504 7.44957C62.5199 11.4191 64.75 16.8029 64.75 22.4167V38.2917M22.4167 38.2917H64.75M43.5833 59.4583V75.3333" stroke="white" stroke-width="2.5" stroke-linecap="round" stroke-linejoin="round"/>
</svg>
